<svg width="308" height="308" viewBox="0 0 308 308" fill="none" xmlns="http://www.w3.org/2000/svg">
<path d="M129.59 23.0489H115.625V64.5355H129.59V23.0489Z" fill="#FFDE55"/>
<path d="M175.03 83.3577L184.905 93.2324L214.24 63.8973L204.365 54.0225L175.03 83.3577Z" fill="#FFDE55"/>
<path d="M41.4866 138.673H0V152.638H41.4866V138.673Z" fill="#FFDE55"/>
<path d="M30.9734 63.897L60.3085 93.2322L70.1833 83.3574L40.8481 54.0223L30.9734 63.897Z" fill="#FFDE55"/>
<path d="M122.605 79.0521C85.8209 79.0521 56.0015 108.872 56.0015 145.657C56.0015 182.441 85.8218 212.261 122.605 212.261C159.389 212.261 189.209 182.441 189.209 145.657C189.21 108.873 159.39 79.0521 122.605 79.0521Z" fill="#FFDE55"/>
<path d="M308 233.332C308 237.539 307.499 241.618 306.547 245.527C301.074 268.149 280.687 284.95 256.373 284.95H66.4467C52.1952 284.95 39.2864 279.171 29.9469 269.832C20.6073 260.492 14.8286 247.592 14.8286 233.332C14.8286 204.821 37.9352 181.705 66.4467 181.705H70.1519C72.302 167.284 79.602 154.537 90.1228 145.393C100.635 136.249 114.368 130.716 129.393 130.716C135.996 130.716 142.344 131.804 148.285 133.776C154.514 125.575 162.562 118.836 171.816 114.136C174.264 112.895 176.796 111.799 179.405 110.856C186.654 108.23 194.481 106.794 202.639 106.794C240.329 106.794 270.88 137.345 270.88 175.034V183.788C281.605 186.924 290.885 193.442 297.488 202.111C304.082 210.778 308 221.596 308 233.332Z" fill="#57C3FF"/>
<path d="M202.639 106.794C194.482 106.794 186.655 108.23 179.406 110.856H179.405L306.547 245.527C307.499 241.618 308 237.539 308 233.332C308 221.596 304.082 210.778 297.488 202.11C290.885 193.442 281.605 186.923 270.88 183.788V175.034C270.88 137.346 240.329 106.794 202.639 106.794Z" fill="#59B6E9"/>
</svg>
