<svg width="110" height="110" viewBox="0 0 110 110" fill="none" xmlns="http://www.w3.org/2000/svg">
<path d="M48.6828 0.730469C48.5797 0.988281 48.7258 1.09141 49.3531 1.19453C49.6969 1.26328 50.032 1.34922 50.0922 1.39219C50.1695 1.46094 50.1953 2.59531 50.1953 6.53125C50.1953 10.4672 50.1695 11.6016 50.0922 11.6703C50.032 11.7219 49.6883 11.8078 49.3359 11.8766C48.7344 11.9797 48.6914 12.0055 48.6914 12.2031V12.418L50.7797 12.4437L52.8594 12.4609V12.2203C52.8594 11.9797 52.8508 11.9711 52.0688 11.8508L51.2695 11.7305L51.2438 7.30469C51.2352 4.87266 51.2438 2.82734 51.2695 2.75859C51.3039 2.66406 51.3641 2.68125 51.5359 2.84453C51.6648 2.95625 53.6156 5.19062 55.8844 7.79453L60.0094 12.5469H60.5164H61.0234V7.06406C61.0234 4.03906 61.0578 1.53828 61.1008 1.46953C61.1438 1.40078 61.4789 1.28906 61.857 1.20312C62.4758 1.07422 62.5273 1.04844 62.5531 0.833593L62.5789 0.601562H60.5078H58.4367L58.4625 0.833593C58.4883 1.04844 58.5398 1.07422 59.0469 1.17734C59.3563 1.2375 59.6914 1.30625 59.8031 1.33203L59.9922 1.375V5.6375C59.9922 9.00625 59.9664 9.89141 59.8891 9.86562C59.8289 9.84844 58.007 7.76016 55.8414 5.23359L51.9055 0.644531L50.3156 0.61875C48.9578 0.601562 48.7258 0.61875 48.6828 0.730469Z" fill="black"/>
<path d="M1.04843 49.0445C1.07421 49.2508 1.13437 49.2937 1.66718 49.4227C1.98515 49.5086 2.28593 49.6031 2.32031 49.6461C2.36328 49.6805 3.07656 52.1727 3.91015 55.1719C4.74375 58.1711 5.43984 60.6977 5.46562 60.775C5.5 60.8953 5.60312 60.9297 5.9125 60.9297H6.3164L7.78593 56.5211C8.72265 53.7109 9.28984 52.1211 9.36718 52.1211C9.43593 52.1211 9.96015 53.6594 10.8539 56.5211L12.2375 60.9297H12.6414C13.0367 60.9297 13.0625 60.9125 13.1312 60.6461C13.4664 59.4859 16.543 49.8523 16.6289 49.7062C16.6977 49.5945 16.9211 49.4914 17.2219 49.4141C17.6687 49.3109 17.7031 49.2852 17.7031 49.0531V48.8125H15.8469H13.9992L14.025 49.0445C14.0508 49.2766 14.0852 49.2937 14.7984 49.4141C15.2109 49.4828 15.5891 49.5859 15.632 49.6289C15.6922 49.6891 15.3742 50.8406 14.6437 53.1953C14.0508 55.1117 13.475 56.9937 13.3547 57.3805C13.2344 57.7844 13.0883 58.0937 13.0281 58.0937C12.882 58.0937 10.2953 49.7492 10.407 49.6289C10.4586 49.5859 10.8109 49.4828 11.1977 49.4141C11.868 49.2937 11.9023 49.2766 11.9281 49.0445L11.9539 48.8125H9.7539H7.5539L7.57968 49.0445C7.60546 49.2594 7.65703 49.2852 8.16406 49.3883C9.08359 49.5687 9.10937 49.5773 9.10937 49.7578C9.10937 49.8437 8.9375 50.4367 8.73125 51.0641C8.525 51.6914 7.94062 53.5219 7.43359 55.1289C6.92656 56.7359 6.47968 58.0852 6.43671 58.1281C6.39375 58.1711 6.33359 58.1883 6.30781 58.1539C6.23046 58.0766 3.95312 49.9297 3.95312 49.7406C3.95312 49.5773 3.99609 49.5687 4.89843 49.3883C5.40546 49.2852 5.45703 49.2594 5.48281 49.0445L5.50859 48.8125H3.26562H1.02265L1.04843 49.0445Z" fill="black"/>
<path d="M100.392 49.0445C100.418 49.268 100.461 49.2852 101.105 49.4141C101.492 49.4914 101.845 49.5859 101.905 49.6203C101.982 49.6633 102.008 50.8922 102.008 54.725C102.008 57.5008 101.973 59.8125 101.939 59.8727C101.896 59.9414 100.667 60.2422 100.401 60.2422C100.384 60.2422 100.375 60.3281 100.392 60.4312L100.418 60.6289L104.603 60.6547L108.788 60.6719L108.883 60.3539C108.926 60.1734 109.063 59.6234 109.184 59.125C109.304 58.6266 109.424 58.1539 109.45 58.068C109.484 57.9562 109.441 57.9219 109.244 57.9219C108.995 57.9219 108.969 57.9648 108.72 58.6266C108.573 59.0219 108.419 59.4 108.376 59.4687C108.316 59.5805 107.955 59.5977 105.995 59.5977H103.684L103.658 57.3289C103.649 56.0484 103.675 55.0172 103.718 54.9742C103.795 54.8969 106.477 54.8883 106.674 54.9656C106.743 54.9914 106.855 55.2922 106.941 55.6445C107.061 56.1687 107.121 56.2891 107.259 56.2891C107.413 56.2891 107.422 56.2031 107.422 54.6133C107.422 52.9977 107.413 52.9375 107.25 52.9375C107.138 52.9375 107.061 53.0148 107.027 53.1695C107.001 53.307 106.932 53.582 106.872 53.7969L106.769 54.1836H105.23H103.684V51.9922V49.8008L105.48 49.775C106.468 49.7664 107.31 49.7836 107.353 49.8266C107.388 49.8609 107.516 50.2047 107.628 50.5742C107.791 51.15 107.86 51.2703 108.023 51.2875L108.221 51.3219L108.161 50.3852C108.127 49.8781 108.075 49.3109 108.049 49.1305L107.998 48.8125H104.182H100.366L100.392 49.0445Z" fill="black"/>
<path d="M54.75 97.1782C53.7102 97.4532 52.9539 98.0118 52.5156 98.8454C51.9828 99.8508 52.0688 101.226 52.7391 102.248C53.143 102.867 53.8648 103.374 55.4375 104.139C57.4398 105.119 57.9297 105.695 57.818 106.923C57.732 107.929 57.1992 108.573 56.2195 108.857C55.3859 109.098 54.2 108.883 53.375 108.333C52.9969 108.084 52.7477 107.602 52.4984 106.623C52.4039 106.236 52.3094 105.866 52.2922 105.806C52.2664 105.72 52.2234 105.72 52.0773 105.789C51.9141 105.884 51.9055 105.944 51.9484 106.459C51.9742 106.777 52.0172 107.396 52.0516 107.834L52.1031 108.634L52.5328 108.848C53.5039 109.338 55.2398 109.588 56.357 109.407C58.2563 109.081 59.4852 107.688 59.4766 105.884C59.4594 104.474 58.8664 103.813 56.5461 102.661C55.8414 102.309 55.068 101.879 54.8359 101.707C54.0539 101.131 53.7188 100.375 53.8305 99.4126C53.9078 98.8024 54.2 98.3211 54.6984 98.0204C55.0766 97.7797 55.1883 97.754 55.8156 97.754C56.4 97.754 56.5891 97.7883 56.9414 97.9774C57.4313 98.2266 57.8438 98.7165 58.0672 99.318C58.2477 99.8336 58.4109 100.014 58.5398 99.8852C58.6344 99.7907 58.4883 97.5563 58.3766 97.436C58.2648 97.3329 56.3484 97.0235 55.8242 97.0321C55.5406 97.0321 55.0594 97.1008 54.75 97.1782Z" fill="black"/>
</svg>
