<svg width="140" height="140" viewBox="0 0 140 140" fill="none" xmlns="http://www.w3.org/2000/svg">
<path fill-rule="evenodd" clip-rule="evenodd" d="M58.3333 116.926C43.2963 109.407 38.6296 114.333 29.5555 103.444C20.4814 92.5555 22.2963 88.1481 21.2592 72.5926C20.2222 57.037 8.55552 52.8889 14.7777 37.8518C21 22.8148 37.3333 28.7778 51.8518 22.8148C66.3703 16.8518 72.3333 9.33332 83.4814 12.1852C94.6296 15.037 95.9259 24.1111 105.778 36.2963C115.63 48.4815 124.963 44.5926 127.296 58.5926C129.63 72.5926 122.111 77 116.926 86.0741C111.741 95.1481 110.704 120.815 96.9629 126.778C84.5185 131.963 73.1111 124.444 58.3333 116.926Z" stroke="#FFDC1D"/>
<path fill-rule="evenodd" clip-rule="evenodd" d="M114.852 98C104.741 105.519 97.2222 110.185 84.7778 118.481C73.1111 126.259 63 131.704 53.9259 130.148C33.963 126.519 24.8889 110.444 18.1482 85.5555C11.4074 60.6667 14.5185 45.1111 28.7778 30.8518C43.037 16.5926 60.1482 15.037 85.037 21.7778C109.926 28.5185 122.111 36.037 127.556 55.7407C133 75.4444 129.37 87.1111 114.852 98Z" stroke="#FFC400"/>
<path fill-rule="evenodd" clip-rule="evenodd" d="M44.5926 121.593C37.3333 118.222 35.5185 106.815 29.8148 97.7407C22.8148 86.8518 11.1481 83.2222 11.1481 70.5185C11.1481 57.2963 18.9259 54.7037 28 44.0741C37.0741 33.4444 37.5926 24.1111 51.8518 18.4074C66.1111 12.7037 75.1852 19.1852 91.5185 28.2593C107.852 37.3333 120.815 42 123.148 52.8889C125.481 63.7778 118.222 68.963 112.778 79.0741C107.333 89.1852 111.741 104.222 99.5555 115.37C93.8518 120.556 79.3333 122.111 72.8518 121.593C63.5185 121.074 57.037 127.556 44.5926 121.593Z" stroke="#FFB400"/>
</svg>
